<svg width="15640" height="550" viewBox="0 0 15640 550" fill="none" xmlns="http://www.w3.org/2000/svg">
<path d="M830.986 133.426C810.46 100.022 763.132 94.5839 754.769 93.8751C746.405 94.5839 699.077 100.022 678.551 133.426C651.918 176.769 673.453 218.581 673.453 218.581C673.453 218.581 615.971 203.029 587.294 238.34C562.116 269.342 553.545 322.785 584.745 347.715C625.53 380.305 656.629 336.497 656.629 336.497C656.629 336.497 662.731 370.564 642.226 380.477C595.323 403.152 564.607 364.16 550.969 328.466C537.332 292.773 560.772 229.618 570.597 209.53C599.402 150.636 670.904 96.713 670.904 96.713C670.904 96.713 545.361 87.1523 505.086 120.424C455.251 161.592 497.384 205.028 459.712 205.578C433.329 205.963 456.526 151.226 407.073 120.424C345.76 82.2356 228 93.6536 228 93.6536C228 93.6536 292.157 143.985 339.523 195.891C403.4 265.89 421.348 341.405 505.086 411.199C550.969 449.442 615.843 480.31 673.453 459.385C699.883 449.786 730.387 426.478 737.817 387.361C750.965 318.141 678.551 268.68 678.551 268.68C678.551 268.68 702.299 269.102 715.64 275.309C730.287 282.124 746.739 302.589 746.739 302.589L754.769 141.203L762.798 302.589C762.798 302.589 779.25 282.124 793.897 275.309C807.238 269.102 830.986 268.68 830.986 268.68C830.986 268.68 758.572 318.141 771.72 387.361C779.15 426.478 809.655 449.786 836.084 459.385C893.694 480.31 958.568 449.442 1004.45 411.199C1088.19 341.405 1106.14 265.89 1170.01 195.891C1217.38 143.985 1281.54 93.6536 1281.54 93.6536C1281.54 93.6536 1163.78 82.2356 1102.46 120.424C1053.01 151.226 1076.21 205.963 1049.83 205.578C1012.15 205.028 1054.29 161.592 1004.45 120.424C964.176 87.1523 838.634 96.713 838.634 96.713C838.634 96.713 910.135 150.636 938.94 209.53C948.765 229.618 972.206 292.773 958.568 328.466C944.93 364.16 914.214 403.152 867.311 380.477C846.806 370.564 852.908 336.497 852.908 336.497C852.908 336.497 884.007 380.305 924.793 347.715C955.992 322.785 947.421 269.342 922.244 238.34C893.566 203.029 836.084 218.581 836.084 218.581C836.084 218.581 857.619 176.769 830.986 133.426Z" fill="#58402B"/>
<path d="M5366.55 133.426C5346.03 100.022 5298.7 94.5839 5290.34 93.8751C5281.97 94.5839 5234.64 100.022 5214.12 133.426C5187.48 176.769 5209.02 218.581 5209.02 218.581C5209.02 218.581 5151.54 203.029 5122.86 238.34C5097.68 269.342 5089.11 322.785 5120.31 347.715C5161.1 380.305 5192.2 336.497 5192.2 336.497C5192.2 336.497 5198.3 370.564 5177.79 380.477C5130.89 403.152 5100.17 364.16 5086.54 328.466C5072.9 292.773 5096.34 229.618 5106.16 209.53C5134.97 150.636 5206.47 96.713 5206.47 96.713C5206.47 96.713 5080.93 87.1523 5040.65 120.424C4990.82 161.592 5032.95 205.028 4995.28 205.578C4968.9 205.963 4992.09 151.226 4942.64 120.424C4881.33 82.2356 4763.57 93.6536 4763.57 93.6536C4763.57 93.6536 4827.72 143.985 4875.09 195.891C4938.97 265.89 4956.91 341.405 5040.65 411.199C5086.54 449.442 5151.41 480.31 5209.02 459.385C5235.45 449.786 5265.95 426.478 5273.38 387.361C5286.53 318.141 5214.12 268.68 5214.12 268.68C5214.12 268.68 5237.87 269.102 5251.21 275.309C5265.85 282.124 5282.31 302.589 5282.31 302.589L5290.34 141.203L5298.36 302.589C5298.36 302.589 5314.82 282.124 5329.46 275.309C5342.8 269.102 5366.55 268.68 5366.55 268.68C5366.55 268.68 5294.14 318.141 5307.29 387.361C5314.72 426.478 5345.22 449.786 5371.65 459.385C5429.26 480.31 5494.13 449.442 5540.02 411.199C5623.76 341.405 5641.7 265.89 5705.58 195.891C5752.95 143.985 5817.1 93.6536 5817.1 93.6536C5817.1 93.6536 5699.34 82.2356 5638.03 120.424C5588.58 151.226 5611.77 205.963 5585.39 205.578C5547.72 205.028 5589.85 161.592 5540.02 120.424C5499.74 87.1523 5374.2 96.713 5374.2 96.713C5374.2 96.713 5445.7 150.636 5474.51 209.53C5484.33 229.618 5507.77 292.773 5494.13 328.466C5480.5 364.16 5449.78 403.152 5402.88 380.477C5382.37 370.564 5388.47 336.497 5388.47 336.497C5388.47 336.497 5419.57 380.305 5460.36 347.715C5491.56 322.785 5482.99 269.342 5457.81 238.34C5429.13 203.029 5371.65 218.581 5371.65 218.581C5371.65 218.581 5393.19 176.769 5366.55 133.426Z" fill="#58402B"/>
<path d="M4529.21 464.324C4536.97 463.592 4583.44 460.045 4600.32 424.778C4620.05 383.537 4610.5 339.623 4610.5 339.623C4610.5 339.623 4667.93 355.176 4696.58 319.864C4721.73 288.862 4730.29 235.42 4699.12 210.489C4658.38 177.899 4627.31 221.707 4627.31 221.707C4627.31 221.707 4621.21 187.641 4641.7 177.728C4688.56 155.052 4719.24 194.045 4732.87 229.738C4746.49 265.432 4723.07 328.587 4713.26 348.674C4684.48 407.569 4613.05 461.491 4613.05 461.491C4613.05 461.491 4738.47 471.052 4778.71 437.781C4828.49 396.612 4786.4 353.176 4824.04 352.626C4850.39 352.241 4827.22 406.979 4876.62 437.78C4937.88 475.969 5055.52 464.551 5055.52 464.551C5055.52 464.551 4991.43 414.219 4944.11 362.314C4880.29 292.314 4862.36 216.799 4778.71 147.005C4732.87 108.762 4668.06 77.8946 4610.5 98.819C4584.1 108.419 4553.62 131.726 4546.2 170.843C4541.58 195.212 4547.54 217.131 4557.22 235.306C4579.91 271.233 4606.75 327.914 4602.35 369.387C4598.41 406.602 4584.3 452.374 4528.94 452.374C4473.58 452.374 4460.24 411.803 4456.05 370.279C4452.34 333.51 4473.26 282.755 4493.73 247.629L4501.31 235.063C4510.91 216.936 4516.81 195.103 4512.2 170.843C4504.78 131.726 4474.3 108.419 4447.9 98.819C4390.35 77.8946 4325.54 108.762 4279.7 147.005C4196.04 216.799 4178.11 292.314 4114.29 362.314C4066.97 414.219 4002.88 464.551 4002.88 464.551C4002.88 464.551 4120.53 475.969 4181.78 437.78C4231.18 406.979 4208.01 352.241 4234.37 352.626C4272 353.176 4229.91 396.612 4279.7 437.781C4319.93 471.052 4445.35 461.491 4445.35 461.491C4445.35 461.491 4373.92 407.569 4345.14 348.674C4335.33 328.587 4311.91 265.432 4325.54 229.738C4339.16 194.045 4369.85 155.052 4416.7 177.728C4437.19 187.641 4431.09 221.707 4431.09 221.707C4431.09 221.707 4400.02 177.899 4359.28 210.489C4328.11 235.42 4336.67 288.862 4361.82 319.864C4390.47 355.176 4447.9 339.623 4447.9 339.623C4447.9 339.623 4435.68 385.959 4456.05 424.523C4474.36 459.185 4521.31 463.577 4529.21 464.324Z" fill="#58402B"/>
<path d="M4527.99 464.423C4527.99 464.423 4528.42 464.398 4529.21 464.324M4530.41 464.423C4530.41 464.423 4529.99 464.397 4529.21 464.324M4529.21 464.324C4536.97 463.592 4583.44 460.045 4600.32 424.778C4620.05 383.537 4610.5 339.623 4610.5 339.623C4610.5 339.623 4667.93 355.176 4696.58 319.864C4721.73 288.862 4730.29 235.42 4699.12 210.489C4658.38 177.899 4627.31 221.707 4627.31 221.707C4627.31 221.707 4621.21 187.641 4641.7 177.728C4688.56 155.052 4719.24 194.045 4732.87 229.738C4746.49 265.432 4723.07 328.587 4713.26 348.674C4684.48 407.569 4613.05 461.491 4613.05 461.491C4613.05 461.491 4738.47 471.052 4778.71 437.781C4828.49 396.612 4786.4 353.176 4824.04 352.626C4850.39 352.241 4827.22 406.979 4876.62 437.78C4937.88 475.969 5055.52 464.551 5055.52 464.551C5055.52 464.551 4991.43 414.219 4944.11 362.314C4880.29 292.314 4862.36 216.799 4778.71 147.005C4732.87 108.762 4668.06 77.8946 4610.5 98.819C4584.1 108.419 4553.62 131.726 4546.2 170.843C4541.58 195.212 4547.55 217.131 4557.22 235.306C4579.91 271.233 4606.75 327.914 4602.35 369.387C4598.41 406.602 4584.3 452.374 4528.94 452.374C4473.58 452.374 4460.24 411.803 4456.05 370.279C4452.34 333.51 4473.26 282.755 4493.73 247.629L4501.31 235.063C4510.91 216.936 4516.81 195.103 4512.2 170.843C4504.78 131.726 4474.3 108.419 4447.9 98.819C4390.35 77.8946 4325.54 108.762 4279.7 147.005C4196.04 216.799 4178.11 292.314 4114.29 362.314C4066.97 414.219 4002.88 464.551 4002.88 464.551C4002.88 464.551 4120.53 475.969 4181.78 437.78C4231.18 406.979 4208.01 352.241 4234.37 352.626C4272 353.176 4229.91 396.612 4279.7 437.781C4319.93 471.052 4445.35 461.491 4445.35 461.491C4445.35 461.491 4373.92 407.569 4345.14 348.674C4335.33 328.587 4311.91 265.432 4325.54 229.738C4339.16 194.045 4369.85 155.052 4416.7 177.728C4437.19 187.641 4431.09 221.707 4431.09 221.707C4431.09 221.707 4400.02 177.899 4359.28 210.489C4328.11 235.42 4336.67 288.862 4361.82 319.864C4390.47 355.176 4447.9 339.623 4447.9 339.623C4447.9 339.623 4435.68 385.959 4456.05 424.523C4474.36 459.185 4521.31 463.577 4529.21 464.324Z" stroke="#58402B"/>
<path d="M4529.21 464.324C4536.97 463.592 4583.44 460.045 4600.32 424.778C4620.05 383.537 4610.5 339.623 4610.5 339.623C4610.5 339.623 4667.93 355.176 4696.58 319.864C4721.73 288.862 4730.29 235.42 4699.12 210.489C4658.38 177.899 4627.31 221.707 4627.31 221.707C4627.31 221.707 4621.21 187.641 4641.7 177.728C4688.56 155.052 4719.24 194.045 4732.87 229.738C4746.49 265.432 4723.07 328.587 4713.26 348.674C4684.48 407.569 4613.05 461.491 4613.05 461.491C4613.05 461.491 4738.47 471.052 4778.71 437.781C4828.49 396.612 4786.4 353.176 4824.04 352.626C4850.39 352.241 4827.22 406.979 4876.62 437.78C4937.88 475.969 5055.52 464.551 5055.52 464.551C5055.52 464.551 4991.43 414.219 4944.11 362.314C4880.29 292.314 4862.36 216.799 4778.71 147.005C4732.87 108.762 4668.06 77.8946 4610.5 98.819C4584.1 108.419 4553.62 131.726 4546.2 170.843C4541.58 195.212 4547.54 217.131 4557.22 235.306C4579.91 271.233 4606.75 327.914 4602.35 369.387C4598.41 406.602 4584.3 452.374 4528.94 452.374C4473.58 452.374 4460.24 411.803 4456.05 370.279C4452.34 333.51 4473.26 282.755 4493.73 247.629L4501.31 235.063C4510.91 216.936 4516.81 195.103 4512.2 170.843C4504.78 131.726 4474.3 108.419 4447.9 98.819C4390.35 77.8946 4325.54 108.762 4279.7 147.005C4196.04 216.799 4178.11 292.314 4114.29 362.314C4066.97 414.219 4002.88 464.551 4002.88 464.551C4002.88 464.551 4120.53 475.969 4181.78 437.78C4231.18 406.979 4208.01 352.241 4234.37 352.626C4272 353.176 4229.91 396.612 4279.7 437.781C4319.93 471.052 4445.35 461.491 4445.35 461.491C4445.35 461.491 4373.92 407.569 4345.14 348.674C4335.33 328.587 4311.91 265.432 4325.54 229.738C4339.16 194.045 4369.85 155.052 4416.7 177.728C4437.19 187.641 4431.09 221.707 4431.09 221.707C4431.09 221.707 4400.02 177.899 4359.28 210.489C4328.11 235.42 4336.67 288.862 4361.82 319.864C4390.47 355.176 4447.9 339.623 4447.9 339.623C4447.9 339.623 4435.68 385.959 4456.05 424.523C4474.36 459.185 4521.31 463.577 4529.21 464.324Z" fill="#58402B"/>
<path d="M4469.97 339.755C4468.66 350.901 4459.81 438.105 4528.48 438.542C4597.15 438.98 4589.68 352.884 4588.05 338.802C4582.97 294.967 4528.48 225.402 4528.48 225.402C4528.48 225.402 4474.94 297.402 4469.97 339.755Z" fill="#C40D0D"/>
<path d="M6041.21 464.324C6048.98 463.592 6095.49 460.045 6112.38 424.778C6132.13 383.537 6122.58 339.623 6122.58 339.623C6122.58 339.623 6180.05 355.176 6208.72 319.864C6233.9 288.862 6242.47 235.42 6211.27 210.489C6170.49 177.899 6139.4 221.707 6139.4 221.707C6139.4 221.707 6133.3 187.641 6153.8 177.728C6200.7 155.052 6231.41 194.045 6245.04 229.738C6258.68 265.432 6235.24 328.587 6225.42 348.674C6196.62 407.569 6125.12 461.491 6125.12 461.491C6125.12 461.491 6250.65 471.052 6290.92 437.781C6340.75 396.612 6298.62 353.176 6336.29 352.626C6362.67 352.241 6339.48 406.979 6388.92 437.78C6450.23 475.969 6567.97 464.551 6567.97 464.551C6567.97 464.551 6503.83 414.219 6456.47 362.314C6392.6 292.314 6374.65 216.799 6290.92 147.005C6245.04 108.762 6180.18 77.8946 6122.58 98.819C6096.15 108.419 6065.65 131.726 6058.22 170.843C6053.59 195.212 6059.57 217.131 6069.25 235.306C6091.95 271.233 6118.82 327.914 6114.42 369.387C6110.47 406.602 6096.35 452.374 6040.94 452.374C5985.53 452.374 5972.18 411.803 5967.99 370.279C5964.28 333.51 5985.21 282.755 6005.71 247.629L6013.29 235.063C6022.9 216.936 6028.8 195.103 6024.19 170.843C6016.76 131.726 5986.26 108.419 5959.84 98.819C5902.23 77.8946 5837.37 108.762 5791.49 147.005C5707.76 216.799 5689.82 292.314 5625.95 362.314C5578.59 414.219 5514.44 464.551 5514.44 464.551C5514.44 464.551 5632.18 475.969 5693.49 437.78C5742.94 406.979 5719.74 352.241 5746.12 352.626C5783.79 353.176 5741.66 396.612 5791.49 437.781C5831.76 471.052 5957.29 461.491 5957.29 461.491C5957.29 461.491 5885.79 407.569 5856.99 348.674C5847.17 328.587 5823.73 265.432 5837.37 229.738C5851 194.045 5881.72 155.052 5928.61 177.728C5949.12 187.641 5943.01 221.707 5943.01 221.707C5943.01 221.707 5911.92 177.899 5871.14 210.489C5839.94 235.42 5848.51 288.862 5873.69 319.864C5902.36 355.176 5959.84 339.623 5959.84 339.623C5959.84 339.623 5947.6 385.959 5967.99 424.523C5986.32 459.185 6033.31 463.577 6041.21 464.324Z" fill="#58402B"/>
<path d="M5981.92 339.755C5980.62 350.901 5971.76 438.105 6040.48 438.542C6109.21 438.98 6101.73 352.884 6100.1 338.802C6095.02 294.967 6040.48 225.402 6040.48 225.402C6040.48 225.402 5986.9 297.402 5981.92 339.755Z" fill="#C40D0D"/>
<path d="M8390.56 133.426C8370.04 100.022 8322.71 94.5839 8314.35 93.8751C8305.98 94.5839 8258.66 100.022 8238.13 133.426C8211.5 176.769 8233.03 218.581 8233.03 218.581C8233.03 218.581 8175.55 203.029 8146.87 238.34C8121.69 269.342 8113.12 322.785 8144.32 347.715C8185.11 380.305 8216.21 336.497 8216.21 336.497C8216.21 336.497 8222.31 370.564 8201.8 380.477C8154.9 403.152 8124.18 364.16 8110.55 328.466C8096.91 292.773 8120.35 229.618 8130.18 209.53C8158.98 150.636 8230.48 96.713 8230.48 96.713C8230.48 96.713 8104.94 87.1523 8064.66 120.424C8014.83 161.592 8056.96 205.028 8019.29 205.578C7992.91 205.963 8016.1 151.226 7966.65 120.424C7905.34 82.2356 7787.58 93.6536 7787.58 93.6536C7787.58 93.6536 7851.74 143.985 7899.1 195.891C7962.98 265.89 7980.93 341.405 8064.66 411.199C8110.55 449.442 8175.42 480.31 8233.03 459.385C8259.46 449.786 8289.97 426.478 8297.4 387.361C8310.54 318.141 8238.13 268.68 8238.13 268.68C8238.13 268.68 8261.88 269.102 8275.22 275.309C8289.87 282.124 8306.32 302.589 8306.32 302.589L8314.35 141.203L8322.38 302.589C8322.38 302.589 8338.83 282.124 8353.48 275.309C8366.82 269.102 8390.56 268.68 8390.56 268.68C8390.56 268.68 8318.15 318.141 8331.3 387.361C8338.73 426.478 8369.23 449.786 8395.66 459.385C8453.27 480.31 8518.15 449.442 8564.03 411.199C8647.77 341.405 8665.72 265.89 8729.59 195.891C8776.96 143.985 8841.12 93.6536 8841.12 93.6536C8841.12 93.6536 8723.35 82.2356 8662.04 120.424C8612.59 151.226 8635.79 205.963 8609.4 205.578C8571.73 205.028 8613.86 161.592 8564.03 120.424C8523.75 87.1523 8398.21 96.713 8398.21 96.713C8398.21 96.713 8469.71 150.636 8498.52 209.53C8508.34 229.618 8531.78 292.773 8518.15 328.466C8504.51 364.16 8473.79 403.152 8426.89 380.477C8406.38 370.564 8412.49 336.497 8412.49 336.497C8412.49 336.497 8443.59 380.305 8484.37 347.715C8515.57 322.785 8507 269.342 8481.82 238.34C8453.14 203.029 8395.66 218.581 8395.66 218.581C8395.66 218.581 8417.2 176.769 8390.56 133.426Z" fill="#58402B"/>
<path d="M9903.91 133.426C9883.38 100.022 9836.05 94.5839 9827.69 93.8751C9819.33 94.5839 9772 100.022 9751.47 133.426C9724.84 176.769 9746.37 218.581 9746.37 218.581C9746.37 218.581 9688.89 203.029 9660.22 238.34C9635.04 269.342 9626.47 322.785 9657.67 347.715C9698.45 380.305 9729.55 336.497 9729.55 336.497C9729.55 336.497 9735.65 370.564 9715.15 380.477C9668.25 403.152 9637.53 364.16 9623.89 328.466C9610.25 292.773 9633.69 229.618 9643.52 209.53C9672.32 150.636 9743.83 96.713 9743.83 96.713C9743.83 96.713 9618.28 87.1523 9578.01 120.424C9528.17 161.592 9570.31 205.028 9532.63 205.578C9506.25 205.963 9529.45 151.226 9480 120.424C9418.68 82.2356 9300.92 93.6536 9300.92 93.6536C9300.92 93.6536 9365.08 143.985 9412.44 195.891C9476.32 265.89 9494.27 341.405 9578.01 411.199C9623.89 449.442 9688.77 480.31 9746.37 459.385C9772.8 449.786 9803.31 426.478 9810.74 387.361C9823.89 318.141 9751.47 268.68 9751.47 268.68C9751.47 268.68 9775.22 269.102 9788.56 275.309C9803.21 282.124 9819.66 302.589 9819.66 302.589L9827.69 141.203L9835.72 302.589C9835.72 302.589 9852.17 282.124 9866.82 275.309C9880.16 269.102 9903.91 268.68 9903.91 268.68C9903.91 268.68 9831.49 318.141 9844.64 387.361C9852.07 426.478 9882.58 449.786 9909.01 459.385C9966.62 480.31 10031.5 449.442 10077.4 411.199C10161.1 341.405 10179.1 265.89 10242.9 195.891C10290.3 143.985 10354.5 93.6536 10354.5 93.6536C10354.5 93.6536 10236.7 82.2356 10175.4 120.424C10125.9 151.226 10149.1 205.963 10122.7 205.578C10085.1 205.028 10127.2 161.592 10077.4 120.424C10037.1 87.1523 9911.56 96.713 9911.56 96.713C9911.56 96.713 9983.06 150.636 10011.9 209.53C10021.7 229.618 10045.1 292.773 10031.5 328.466C10017.9 364.16 9987.14 403.152 9940.23 380.477C9919.73 370.564 9925.83 336.497 9925.83 336.497C9925.83 336.497 9956.93 380.305 9997.71 347.715C10028.9 322.785 10020.3 269.342 9995.17 238.34C9966.49 203.029 9909.01 218.581 9909.01 218.581C9909.01 218.581 9930.54 176.769 9903.91 133.426Z" fill="#58402B"/>
<path d="M11415.5 133.426C11394.9 100.022 11347.6 94.5839 11339.2 93.8751C11330.9 94.5839 11283.6 100.022 11263 133.426C11236.4 176.769 11257.9 218.581 11257.9 218.581C11257.9 218.581 11200.4 203.029 11171.8 238.34C11146.6 269.342 11138 322.785 11169.2 347.715C11210 380.305 11241.1 336.497 11241.1 336.497C11241.1 336.497 11247.2 370.564 11226.7 380.477C11179.8 403.152 11149.1 364.16 11135.4 328.466C11121.8 292.773 11145.2 229.618 11155.1 209.53C11183.9 150.636 11255.4 96.713 11255.4 96.713C11255.4 96.713 11129.8 87.1523 11089.6 120.424C11039.7 161.592 11081.9 205.028 11044.2 205.578C11017.8 205.963 11041 151.226 10991.5 120.424C10930.2 82.2356 10812.5 93.6536 10812.5 93.6536C10812.5 93.6536 10876.6 143.985 10924 195.891C10987.9 265.89 11005.8 341.405 11089.6 411.199C11135.4 449.442 11200.3 480.31 11257.9 459.385C11284.4 449.786 11314.9 426.478 11322.3 387.361C11335.4 318.141 11263 268.68 11263 268.68C11263 268.68 11286.8 269.102 11300.1 275.309C11314.8 282.124 11331.2 302.589 11331.2 302.589L11339.2 141.203L11347.3 302.589C11347.3 302.589 11363.7 282.124 11378.4 275.309C11391.7 269.102 11415.5 268.68 11415.5 268.68C11415.5 268.68 11343 318.141 11356.2 387.361C11363.6 426.478 11394.1 449.786 11420.6 459.385C11478.2 480.31 11543 449.442 11588.9 411.199C11672.7 341.405 11690.6 265.89 11754.5 195.891C11801.9 143.985 11866 93.6536 11866 93.6536C11866 93.6536 11748.3 82.2356 11686.9 120.424C11637.5 151.226 11660.7 205.963 11634.3 205.578C11596.6 205.028 11638.8 161.592 11588.9 120.424C11548.7 87.1523 11423.1 96.713 11423.1 96.713C11423.1 96.713 11494.6 150.636 11523.4 209.53C11533.2 229.618 11556.7 292.773 11543 328.466C11529.4 364.16 11498.7 403.152 11451.8 380.477C11431.3 370.564 11437.4 336.497 11437.4 336.497C11437.4 336.497 11468.5 380.305 11509.3 347.715C11540.5 322.785 11531.9 269.342 11506.7 238.34C11478 203.029 11420.6 218.581 11420.6 218.581C11420.6 218.581 11442.1 176.769 11415.5 133.426Z" fill="#58402B"/>
<path d="M12927 133.426C12906.5 100.022 12859.2 94.5839 12850.8 93.8751C12842.4 94.5839 12795.1 100.022 12774.6 133.426C12748 176.769 12769.5 218.581 12769.5 218.581C12769.5 218.581 12712 203.029 12683.3 238.34C12658.2 269.342 12649.6 322.785 12680.8 347.715C12721.6 380.305 12752.7 336.497 12752.7 336.497C12752.7 336.497 12758.8 370.564 12738.3 380.477C12691.4 403.152 12660.6 364.16 12647 328.466C12633.4 292.773 12656.8 229.618 12666.6 209.53C12695.4 150.636 12766.9 96.713 12766.9 96.713C12766.9 96.713 12641.4 87.1523 12601.1 120.424C12551.3 161.592 12593.4 205.028 12555.7 205.578C12529.4 205.963 12552.6 151.226 12503.1 120.424C12441.8 82.2356 12324 93.6536 12324 93.6536C12324 93.6536 12388.2 143.985 12435.6 195.891C12499.4 265.89 12517.4 341.405 12601.1 411.199C12647 449.442 12711.9 480.31 12769.5 459.385C12795.9 449.786 12826.4 426.478 12833.9 387.361C12847 318.141 12774.6 268.68 12774.6 268.68C12774.6 268.68 12798.3 269.102 12811.7 275.309C12826.3 282.124 12842.8 302.589 12842.8 302.589L12850.8 141.203L12858.8 302.589C12858.8 302.589 12875.3 282.124 12889.9 275.309C12903.3 269.102 12927 268.68 12927 268.68C12927 268.68 12854.6 318.141 12867.8 387.361C12875.2 426.478 12905.7 449.786 12932.1 459.385C12989.7 480.31 13054.6 449.442 13100.5 411.199C13184.2 341.405 13202.2 265.89 13266 195.891C13313.4 143.985 13377.6 93.6536 13377.6 93.6536C13377.6 93.6536 13259.8 82.2356 13198.5 120.424C13149 151.226 13172.2 205.963 13145.9 205.578C13108.2 205.028 13150.3 161.592 13100.5 120.424C13060.2 87.1523 12934.7 96.713 12934.7 96.713C12934.7 96.713 13006.2 150.636 13035 209.53C13044.8 229.618 13068.2 292.773 13054.6 328.466C13041 364.16 13010.2 403.152 12963.3 380.477C12942.8 370.564 12948.9 336.497 12948.9 336.497C12948.9 336.497 12980 380.305 13020.8 347.715C13052 322.785 13043.5 269.342 13018.3 238.34C12989.6 203.029 12932.1 218.581 12932.1 218.581C12932.1 218.581 12953.7 176.769 12927 133.426Z" fill="#58402B"/>
<path d="M14438.6 133.426C14418.1 100.022 14370.7 94.5839 14362.4 93.8751C14354 94.5839 14306.7 100.022 14286.1 133.426C14259.5 176.769 14281 218.581 14281 218.581C14281 218.581 14223.6 203.029 14194.9 238.34C14169.7 269.342 14161.1 322.785 14192.3 347.715C14233.1 380.305 14264.2 336.497 14264.2 336.497C14264.2 336.497 14270.3 370.564 14249.8 380.477C14202.9 403.152 14172.2 364.16 14158.6 328.466C14144.9 292.773 14168.4 229.618 14178.2 209.53C14207 150.636 14278.5 96.713 14278.5 96.713C14278.5 96.713 14153 87.1523 14112.7 120.424C14062.8 161.592 14105 205.028 14067.3 205.578C14040.9 205.963 14064.1 151.226 14014.7 120.424C13953.4 82.2356 13835.6 93.6536 13835.6 93.6536C13835.6 93.6536 13899.8 143.985 13947.1 195.891C14011 265.89 14028.9 341.405 14112.7 411.199C14158.6 449.442 14223.4 480.31 14281 459.385C14307.5 449.786 14338 426.478 14345.4 387.361C14358.6 318.141 14286.1 268.68 14286.1 268.68C14286.1 268.68 14309.9 269.102 14323.2 275.309C14337.9 282.124 14354.3 302.589 14354.3 302.589L14362.4 141.203L14370.4 302.589C14370.4 302.589 14386.8 282.124 14401.5 275.309C14414.8 269.102 14438.6 268.68 14438.6 268.68C14438.6 268.68 14366.2 318.141 14379.3 387.361C14386.7 426.478 14417.2 449.786 14443.7 459.385C14501.3 480.31 14566.2 449.442 14612 411.199C14695.8 341.405 14713.7 265.89 14777.6 195.891C14825 143.985 14889.1 93.6536 14889.1 93.6536C14889.1 93.6536 14771.4 82.2356 14710.1 120.424C14660.6 151.226 14683.8 205.963 14657.4 205.578C14619.7 205.028 14661.9 161.592 14612 120.424C14571.8 87.1523 14446.2 96.713 14446.2 96.713C14446.2 96.713 14517.7 150.636 14546.5 209.53C14556.4 229.618 14579.8 292.773 14566.2 328.466C14552.5 364.16 14521.8 403.152 14474.9 380.477C14454.4 370.564 14460.5 336.497 14460.5 336.497C14460.5 336.497 14491.6 380.305 14532.4 347.715C14563.6 322.785 14555 269.342 14529.8 238.34C14501.2 203.029 14443.7 218.581 14443.7 218.581C14443.7 218.581 14465.2 176.769 14438.6 133.426Z" fill="#58402B"/>
<path d="M6879.01 133.426C6858.48 100.022 6811.15 94.5839 6802.79 93.8751C6794.42 94.5839 6747.1 100.022 6726.57 133.426C6699.94 176.769 6721.47 218.581 6721.47 218.581C6721.47 218.581 6663.99 203.029 6635.31 238.34C6610.14 269.342 6601.56 322.785 6632.76 347.715C6673.55 380.305 6704.65 336.497 6704.65 336.497C6704.65 336.497 6710.75 370.564 6690.25 380.477C6643.34 403.152 6612.63 364.16 6598.99 328.466C6585.35 292.773 6608.79 229.618 6618.62 209.53C6647.42 150.636 6718.92 96.713 6718.92 96.713C6718.92 96.713 6593.38 87.1523 6553.11 120.424C6503.27 161.592 6545.4 205.028 6507.73 205.578C6481.35 205.963 6504.55 151.226 6455.09 120.424C6393.78 82.2356 6276.02 93.6536 6276.02 93.6536C6276.02 93.6536 6340.18 143.985 6387.54 195.891C6451.42 265.89 6469.37 341.405 6553.11 411.199C6598.99 449.442 6663.86 480.31 6721.47 459.385C6747.9 449.786 6778.41 426.478 6785.84 387.361C6798.98 318.141 6726.57 268.68 6726.57 268.68C6726.57 268.68 6750.32 269.102 6763.66 275.309C6778.31 282.124 6794.76 302.589 6794.76 302.589L6802.79 141.203L6810.82 302.589C6810.82 302.589 6827.27 282.124 6841.92 275.309C6855.26 269.102 6879.01 268.68 6879.01 268.68C6879.01 268.68 6806.59 318.141 6819.74 387.361C6827.17 426.478 6857.67 449.786 6884.1 459.385C6941.71 480.31 7006.59 449.442 7052.47 411.199C7136.21 341.405 7154.16 265.89 7218.03 195.891C7265.4 143.985 7329.56 93.6536 7329.56 93.6536C7329.56 93.6536 7211.8 82.2356 7150.48 120.424C7101.03 151.226 7124.23 205.963 7097.84 205.578C7060.17 205.028 7102.31 161.592 7052.47 120.424C7012.2 87.1523 6886.65 96.713 6886.65 96.713C6886.65 96.713 6958.15 150.636 6986.96 209.53C6996.78 229.618 7020.23 292.773 7006.59 328.466C6992.95 364.16 6962.23 403.152 6915.33 380.477C6894.83 370.564 6900.93 336.497 6900.93 336.497C6900.93 336.497 6932.03 380.305 6972.81 347.715C7004.01 322.785 6995.44 269.342 6970.26 238.34C6941.59 203.029 6884.1 218.581 6884.1 218.581C6884.1 218.581 6905.64 176.769 6879.01 133.426Z" fill="#58402B"/>
<path d="M7553.22 464.324C7560.98 463.592 7607.45 460.045 7624.32 424.778C7644.06 383.537 7634.51 339.623 7634.51 339.623C7634.51 339.623 7691.94 355.176 7720.59 319.864C7745.74 288.862 7754.3 235.42 7723.13 210.489C7682.39 177.899 7651.32 221.707 7651.32 221.707C7651.32 221.707 7645.22 187.641 7665.71 177.728C7712.56 155.052 7743.25 194.045 7756.87 229.738C7770.5 265.432 7747.08 328.587 7737.27 348.674C7708.49 407.569 7637.06 461.491 7637.06 461.491C7637.06 461.491 7762.48 471.052 7802.71 437.781C7852.5 396.612 7810.41 353.176 7848.04 352.626C7874.4 352.241 7851.23 406.979 7900.63 437.78C7961.88 475.969 8079.53 464.551 8079.53 464.551C8079.53 464.551 8015.44 414.219 7968.12 362.314C7904.3 292.314 7886.37 216.799 7802.71 147.005C7756.87 108.762 7692.06 77.8946 7634.51 98.819C7608.11 108.419 7577.63 131.726 7570.21 170.843C7565.58 195.212 7571.55 217.131 7581.23 235.306C7603.91 271.233 7630.75 327.914 7626.36 369.387C7622.42 406.602 7608.31 452.374 7552.95 452.374C7497.58 452.374 7484.24 411.803 7480.06 370.279C7476.35 333.51 7497.26 282.755 7517.74 247.629L7525.32 235.063C7534.92 216.936 7540.81 195.103 7536.21 170.843C7528.79 131.726 7498.31 108.419 7471.91 98.819C7414.35 77.8946 7349.54 108.762 7303.7 147.005C7220.05 216.799 7202.12 292.314 7138.3 362.314C7090.98 414.219 7026.89 464.551 7026.89 464.551C7026.89 464.551 7144.53 475.969 7205.79 437.78C7255.19 406.979 7232.02 352.241 7258.37 352.626C7296.01 353.176 7253.92 396.612 7303.7 437.781C7343.94 471.052 7469.36 461.491 7469.36 461.491C7469.36 461.491 7397.93 407.569 7369.15 348.674C7359.34 328.587 7335.92 265.432 7349.54 229.738C7363.17 194.045 7393.85 155.052 7440.71 177.728C7461.2 187.641 7455.1 221.707 7455.1 221.707C7455.1 221.707 7424.03 177.899 7383.29 210.489C7352.12 235.42 7360.68 288.862 7385.83 319.864C7414.48 355.176 7471.91 339.623 7471.91 339.623C7471.91 339.623 7459.68 385.959 7480.06 424.523C7498.37 459.185 7545.32 463.577 7553.22 464.324Z" fill="#58402B"/>
<path d="M7552 464.423C7552 464.423 7552.43 464.398 7553.22 464.324M7554.42 464.423C7554.42 464.423 7554 464.397 7553.22 464.324M7553.22 464.324C7560.98 463.592 7607.45 460.045 7624.32 424.778C7644.06 383.537 7634.51 339.623 7634.51 339.623C7634.51 339.623 7691.94 355.176 7720.59 319.864C7745.74 288.862 7754.3 235.42 7723.13 210.489C7682.39 177.899 7651.32 221.707 7651.32 221.707C7651.32 221.707 7645.22 187.641 7665.71 177.728C7712.56 155.052 7743.25 194.045 7756.87 229.738C7770.5 265.432 7747.08 328.587 7737.27 348.674C7708.49 407.569 7637.06 461.491 7637.06 461.491C7637.06 461.491 7762.48 471.052 7802.71 437.781C7852.5 396.612 7810.41 353.176 7848.04 352.626C7874.4 352.241 7851.23 406.979 7900.63 437.78C7961.88 475.969 8079.53 464.551 8079.53 464.551C8079.53 464.551 8015.44 414.219 7968.12 362.314C7904.3 292.314 7886.37 216.799 7802.71 147.005C7756.87 108.762 7692.06 77.8946 7634.51 98.819C7608.11 108.419 7577.63 131.726 7570.21 170.843C7565.58 195.212 7571.55 217.131 7581.23 235.306C7603.91 271.233 7630.75 327.914 7626.36 369.387C7622.42 406.602 7608.31 452.374 7552.95 452.374C7497.58 452.374 7484.24 411.803 7480.06 370.279C7476.35 333.51 7497.26 282.755 7517.74 247.629L7525.32 235.063C7534.92 216.936 7540.81 195.103 7536.21 170.843C7528.79 131.726 7498.31 108.419 7471.91 98.819C7414.35 77.8946 7349.54 108.762 7303.7 147.005C7220.05 216.799 7202.12 292.314 7138.3 362.314C7090.98 414.219 7026.89 464.551 7026.89 464.551C7026.89 464.551 7144.53 475.969 7205.79 437.78C7255.19 406.979 7232.02 352.241 7258.37 352.626C7296.01 353.176 7253.92 396.612 7303.7 437.781C7343.94 471.052 7469.36 461.491 7469.36 461.491C7469.36 461.491 7397.93 407.569 7369.15 348.674C7359.34 328.587 7335.92 265.432 7349.54 229.738C7363.17 194.045 7393.85 155.052 7440.71 177.728C7461.2 187.641 7455.1 221.707 7455.1 221.707C7455.1 221.707 7424.03 177.899 7383.29 210.489C7352.12 235.42 7360.68 288.862 7385.83 319.864C7414.48 355.176 7471.91 339.623 7471.91 339.623C7471.91 339.623 7459.68 385.959 7480.06 424.523C7498.37 459.185 7545.32 463.577 7553.22 464.324Z" stroke="#58402B"/>
<path d="M7553.22 464.324C7560.98 463.592 7607.45 460.045 7624.32 424.778C7644.06 383.537 7634.51 339.623 7634.51 339.623C7634.51 339.623 7691.94 355.176 7720.59 319.864C7745.74 288.862 7754.3 235.42 7723.13 210.489C7682.39 177.899 7651.32 221.707 7651.32 221.707C7651.32 221.707 7645.22 187.641 7665.71 177.728C7712.56 155.052 7743.25 194.045 7756.87 229.738C7770.5 265.432 7747.08 328.587 7737.27 348.674C7708.49 407.569 7637.06 461.491 7637.06 461.491C7637.06 461.491 7762.48 471.052 7802.71 437.781C7852.5 396.612 7810.41 353.176 7848.04 352.626C7874.4 352.241 7851.23 406.979 7900.63 437.78C7961.88 475.969 8079.53 464.551 8079.53 464.551C8079.53 464.551 8015.44 414.219 7968.12 362.314C7904.3 292.314 7886.37 216.799 7802.71 147.005C7756.87 108.762 7692.06 77.8946 7634.51 98.819C7608.11 108.419 7577.63 131.726 7570.21 170.843C7565.58 195.212 7571.55 217.131 7581.23 235.306C7603.91 271.233 7630.75 327.914 7626.36 369.387C7622.42 406.602 7608.31 452.374 7552.95 452.374C7497.58 452.374 7484.24 411.803 7480.06 370.279C7476.35 333.51 7497.26 282.755 7517.74 247.629L7525.32 235.063C7534.92 216.936 7540.81 195.103 7536.21 170.843C7528.79 131.726 7498.31 108.419 7471.91 98.819C7414.35 77.8946 7349.54 108.762 7303.7 147.005C7220.05 216.799 7202.12 292.314 7138.3 362.314C7090.98 414.219 7026.89 464.551 7026.89 464.551C7026.89 464.551 7144.53 475.969 7205.79 437.78C7255.19 406.979 7232.02 352.241 7258.37 352.626C7296.01 353.176 7253.92 396.612 7303.7 437.781C7343.94 471.052 7469.36 461.491 7469.36 461.491C7469.36 461.491 7397.93 407.569 7369.15 348.674C7359.34 328.587 7335.92 265.432 7349.54 229.738C7363.17 194.045 7393.85 155.052 7440.71 177.728C7461.2 187.641 7455.1 221.707 7455.1 221.707C7455.1 221.707 7424.03 177.899 7383.29 210.489C7352.12 235.42 7360.68 288.862 7385.83 319.864C7414.48 355.176 7471.91 339.623 7471.91 339.623C7471.91 339.623 7459.68 385.959 7480.06 424.523C7498.37 459.185 7545.32 463.577 7553.22 464.324Z" fill="#58402B"/>
<path d="M7493.98 339.755C7492.67 350.901 7483.82 438.105 7552.49 438.542C7621.15 438.98 7613.69 352.884 7612.05 338.802C7606.98 294.967 7552.49 225.402 7552.49 225.402C7552.49 225.402 7498.95 297.402 7493.98 339.755Z" fill="#C40D0D"/>
<path d="M9065.22 464.324C9072.99 463.592 9119.5 460.045 9136.39 424.778C9156.14 383.537 9146.58 339.623 9146.58 339.623C9146.58 339.623 9204.06 355.176 9232.73 319.864C9257.91 288.862 9266.48 235.42 9235.28 210.489C9194.5 177.899 9163.41 221.707 9163.41 221.707C9163.41 221.707 9157.3 187.641 9177.81 177.728C9224.7 155.052 9255.42 194.045 9269.05 229.738C9282.69 265.432 9259.25 328.587 9249.43 348.674C9220.63 407.569 9149.13 461.491 9149.13 461.491C9149.13 461.491 9274.66 471.052 9314.93 437.781C9364.76 396.612 9322.63 353.176 9360.3 352.626C9386.68 352.241 9363.48 406.979 9412.93 437.78C9474.24 475.969 9591.98 464.551 9591.98 464.551C9591.98 464.551 9527.83 414.219 9480.47 362.314C9416.6 292.314 9398.66 216.799 9314.93 147.005C9269.05 108.762 9204.19 77.8946 9146.58 98.819C9120.16 108.419 9089.66 131.726 9082.23 170.843C9077.6 195.212 9083.57 217.131 9093.26 235.306C9115.96 271.233 9142.82 327.914 9138.43 369.387C9134.48 406.602 9120.36 452.374 9064.95 452.374C9009.54 452.374 8996.19 411.803 8992 370.279C8988.29 333.51 9009.22 282.755 9029.72 247.629L9037.3 235.063C9046.91 216.936 9052.81 195.103 9048.2 170.843C9040.77 131.726 9010.27 108.419 8983.84 98.819C8926.24 77.8946 8861.38 108.762 8815.5 147.005C8731.77 216.799 8713.82 292.314 8649.95 362.314C8602.59 414.219 8538.45 464.551 8538.45 464.551C8538.45 464.551 8656.19 475.969 8717.5 437.78C8766.94 406.979 8743.75 352.241 8770.13 352.626C8807.8 353.176 8765.67 396.612 8815.5 437.781C8855.77 471.052 8981.3 461.491 8981.3 461.491C8981.3 461.491 8909.8 407.569 8881 348.674C8871.18 328.587 8847.74 265.432 8861.38 229.738C8875.01 194.045 8905.72 155.052 8952.62 177.728C8973.12 187.641 8967.02 221.707 8967.02 221.707C8967.02 221.707 8935.93 177.899 8895.15 210.489C8863.95 235.42 8872.52 288.862 8897.7 319.864C8926.37 355.176 8983.84 339.623 8983.84 339.623C8983.84 339.623 8971.61 385.959 8992 424.523C9010.33 459.185 9057.32 463.577 9065.22 464.324Z" fill="#58402B"/>
<path d="M9005.93 339.755C9004.62 350.901 8995.77 438.105 9064.49 438.542C9133.22 438.98 9125.74 352.884 9124.11 338.802C9119.03 294.967 9064.49 225.402 9064.49 225.402C9064.49 225.402 9010.91 297.402 9005.93 339.755Z" fill="#C40D0D"/>
<path d="M10578.6 464.324C10586.3 463.592 10632.8 460.045 10649.7 424.778C10669.5 383.537 10659.9 339.623 10659.9 339.623C10659.9 339.623 10717.4 355.176 10746.1 319.864C10771.3 288.862 10779.8 235.42 10748.6 210.489C10707.8 177.899 10676.7 221.707 10676.7 221.707C10676.7 221.707 10670.6 187.641 10691.1 177.728C10738 155.052 10768.8 194.045 10782.4 229.738C10796 265.432 10772.6 328.587 10762.8 348.674C10734 407.569 10662.5 461.491 10662.5 461.491C10662.5 461.491 10788 471.052 10828.3 437.781C10878.1 396.612 10836 353.176 10873.6 352.626C10900 352.241 10876.8 406.979 10926.3 437.78C10987.6 475.969 11105.3 464.551 11105.3 464.551C11105.3 464.551 11041.2 414.219 10993.8 362.314C10929.9 292.314 10912 216.799 10828.3 147.005C10782.4 108.762 10717.5 77.8946 10659.9 98.819C10633.5 108.419 10603 131.726 10595.6 170.843C10590.9 195.212 10596.9 217.131 10606.6 235.306C10629.3 271.233 10656.2 327.914 10651.8 369.387C10647.8 406.602 10633.7 452.374 10578.3 452.374C10522.9 452.374 10509.5 411.803 10505.3 370.279C10501.6 333.51 10522.6 282.755 10543.1 247.629L10550.6 235.063C10560.3 216.936 10566.2 195.103 10561.5 170.843C10554.1 131.726 10523.6 108.419 10497.2 98.819C10439.6 77.8946 10374.7 108.762 10328.8 147.005C10245.1 216.799 10227.2 292.314 10163.3 362.314C10115.9 414.219 10051.8 464.551 10051.8 464.551C10051.8 464.551 10169.5 475.969 10230.8 437.78C10280.3 406.979 10257.1 352.241 10283.5 352.626C10321.1 353.176 10279 396.612 10328.8 437.781C10369.1 471.052 10494.6 461.491 10494.6 461.491C10494.6 461.491 10423.1 407.569 10394.3 348.674C10384.5 328.587 10361.1 265.432 10374.7 229.738C10388.4 194.045 10419.1 155.052 10466 177.728C10486.5 187.641 10480.4 221.707 10480.4 221.707C10480.4 221.707 10449.3 177.899 10408.5 210.489C10377.3 235.42 10385.9 288.862 10411 319.864C10439.7 355.176 10497.2 339.623 10497.2 339.623C10497.2 339.623 10485 385.959 10505.3 424.523C10523.7 459.185 10570.7 463.577 10578.6 464.324Z" fill="#58402B"/>
<path d="M10519.3 339.755C10518 350.901 10509.1 438.105 10577.8 438.542C10646.6 438.98 10639.1 352.884 10637.5 338.802C10632.4 294.967 10577.8 225.402 10577.8 225.402C10577.8 225.402 10524.3 297.402 10519.3 339.755Z" fill="#C40D0D"/>
<path d="M12090.1 464.324C12097.9 463.592 12144.4 460.045 12161.3 424.778C12181 383.537 12171.5 339.623 12171.5 339.623C12171.5 339.623 12229 355.176 12257.6 319.864C12282.8 288.862 12291.4 235.42 12260.2 210.489C12219.4 177.899 12188.3 221.707 12188.3 221.707C12188.3 221.707 12182.2 187.641 12202.7 177.728C12249.6 155.052 12280.3 194.045 12294 229.738C12307.6 265.432 12284.2 328.587 12274.3 348.674C12245.5 407.569 12174 461.491 12174 461.491C12174 461.491 12299.6 471.052 12339.8 437.781C12389.7 396.612 12347.5 353.176 12385.2 352.626C12411.6 352.241 12388.4 406.979 12437.8 437.78C12499.1 475.969 12616.9 464.551 12616.9 464.551C12616.9 464.551 12552.7 414.219 12505.4 362.314C12441.5 292.314 12423.6 216.799 12339.8 147.005C12294 108.762 12229.1 77.8946 12171.5 98.819C12145.1 108.419 12114.6 131.726 12107.1 170.843C12102.5 195.212 12108.5 217.131 12118.2 235.306C12140.9 271.233 12167.7 327.914 12163.3 369.387C12159.4 406.602 12145.3 452.374 12089.9 452.374C12034.4 452.374 12021.1 411.803 12016.9 370.279C12013.2 333.51 12034.1 282.755 12054.6 247.629L12062.2 235.063C12071.8 216.936 12077.7 195.103 12073.1 170.843C12065.7 131.726 12035.2 108.419 12008.7 98.819C11951.1 77.8946 11886.3 108.762 11840.4 147.005C11756.7 216.799 11738.7 292.314 11674.9 362.314C11627.5 414.219 11563.3 464.551 11563.3 464.551C11563.3 464.551 11681.1 475.969 11742.4 437.78C11791.8 406.979 11768.7 352.241 11795 352.626C11832.7 353.176 11790.6 396.612 11840.4 437.781C11880.7 471.052 12006.2 461.491 12006.2 461.491C12006.2 461.491 11934.7 407.569 11905.9 348.674C11896.1 328.587 11872.6 265.432 11886.3 229.738C11899.9 194.045 11930.6 155.052 11977.5 177.728C11998 187.641 11991.9 221.707 11991.9 221.707C11991.9 221.707 11960.8 177.899 11920 210.489C11888.9 235.42 11897.4 288.862 11922.6 319.864C11951.3 355.176 12008.7 339.623 12008.7 339.623C12008.7 339.623 11996.5 385.959 12016.9 424.523C12035.2 459.185 12082.2 463.577 12090.1 464.324Z" fill="#58402B"/>
<path d="M12030.8 339.755C12029.5 350.901 12020.7 438.105 12089.4 438.542C12158.1 438.98 12150.6 352.884 12149 338.802C12143.9 294.967 12089.4 225.402 12089.4 225.402C12089.4 225.402 12035.8 297.402 12030.8 339.755Z" fill="#C40D0D"/>
<path d="M13601.7 464.324C13609.5 463.592 13656 460.045 13672.8 424.778C13692.6 383.537 13683 339.623 13683 339.623C13683 339.623 13740.5 355.176 13769.2 319.864C13794.4 288.862 13802.9 235.42 13771.7 210.489C13731 177.899 13699.9 221.707 13699.9 221.707C13699.9 221.707 13693.8 187.641 13714.3 177.728C13761.2 155.052 13791.9 194.045 13805.5 229.738C13819.1 265.432 13795.7 328.587 13785.9 348.674C13757.1 407.569 13685.6 461.491 13685.6 461.491C13685.6 461.491 13811.1 471.052 13851.4 437.781C13901.2 396.612 13859.1 353.176 13896.8 352.626C13923.1 352.241 13899.9 406.979 13949.4 437.78C14010.7 475.969 14128.4 464.551 14128.4 464.551C14128.4 464.551 14064.3 414.219 14016.9 362.314C13953.1 292.314 13935.1 216.799 13851.4 147.005C13805.5 108.762 13740.6 77.8946 13683 98.819C13656.6 108.419 13626.1 131.726 13618.7 170.843C13614.1 195.212 13620 217.131 13629.7 235.306C13652.4 271.233 13679.3 327.914 13674.9 369.387C13670.9 406.602 13656.8 452.374 13601.4 452.374C13546 452.374 13532.7 411.803 13528.5 370.279C13524.8 333.51 13545.7 282.755 13566.2 247.629L13573.8 235.063C13583.4 216.936 13589.3 195.103 13584.7 170.843C13577.2 131.726 13546.7 108.419 13520.3 98.819C13462.7 77.8946 13397.8 108.762 13352 147.005C13268.2 216.799 13250.3 292.314 13186.4 362.314C13139.1 414.219 13074.9 464.551 13074.9 464.551C13074.9 464.551 13192.7 475.969 13254 437.78C13303.4 406.979 13280.2 352.241 13306.6 352.626C13344.3 353.176 13302.1 396.612 13352 437.781C13392.2 471.052 13517.8 461.491 13517.8 461.491C13517.8 461.491 13446.3 407.569 13417.5 348.674C13407.6 328.587 13384.2 265.432 13397.8 229.738C13411.5 194.045 13442.2 155.052 13489.1 177.728C13509.6 187.641 13503.5 221.707 13503.5 221.707C13503.5 221.707 13472.4 177.899 13431.6 210.489C13400.4 235.42 13409 288.862 13434.2 319.864C13462.8 355.176 13520.3 339.623 13520.3 339.623C13520.3 339.623 13508.1 385.959 13528.5 424.523C13546.8 459.185 13593.8 463.577 13601.7 464.324Z" fill="#58402B"/>
<path d="M13542.4 339.755C13541.1 350.901 13532.2 438.105 13601 438.542C13669.7 438.98 13662.2 352.884 13660.6 338.802C13655.5 294.967 13601 225.402 13601 225.402C13601 225.402 13547.4 297.402 13542.4 339.755Z" fill="#C40D0D"/>
<path d="M15113.2 464.324C15121 463.592 15167.5 460.045 15184.4 424.778C15204.2 383.537 15194.6 339.623 15194.6 339.623C15194.6 339.623 15252.1 355.176 15280.7 319.864C15305.9 288.862 15314.5 235.42 15283.3 210.489C15242.5 177.899 15211.4 221.707 15211.4 221.707C15211.4 221.707 15205.3 187.641 15225.8 177.728C15272.7 155.052 15303.4 194.045 15317.1 229.738C15330.7 265.432 15307.3 328.587 15297.4 348.674C15268.6 407.569 15197.1 461.491 15197.1 461.491C15197.1 461.491 15322.7 471.052 15362.9 437.781C15412.8 396.612 15370.6 353.176 15408.3 352.626C15434.7 352.241 15411.5 406.979 15460.9 437.78C15522.3 475.969 15640 464.551 15640 464.551C15640 464.551 15575.8 414.219 15528.5 362.314C15464.6 292.314 15446.7 216.799 15362.9 147.005C15317.1 108.762 15252.2 77.8946 15194.6 98.819C15168.2 108.419 15137.7 131.726 15130.2 170.843C15125.6 195.212 15131.6 217.131 15141.3 235.306C15164 271.233 15190.8 327.914 15186.4 369.387C15182.5 406.602 15168.4 452.374 15113 452.374C15057.6 452.374 15044.2 411.803 15040 370.279C15036.3 333.51 15057.2 282.755 15077.7 247.629L15085.3 235.063C15094.9 216.936 15100.8 195.103 15096.2 170.843C15088.8 131.726 15058.3 108.419 15031.9 98.819C14974.3 77.8946 14909.4 108.762 14863.5 147.005C14779.8 216.799 14761.8 292.314 14698 362.314C14650.6 414.219 14586.5 464.551 14586.5 464.551C14586.5 464.551 14704.2 475.969 14765.5 437.78C14815 406.979 14791.8 352.241 14818.1 352.626C14855.8 353.176 14813.7 396.612 14863.5 437.781C14903.8 471.052 15029.3 461.491 15029.3 461.491C15029.3 461.491 14957.8 407.569 14929 348.674C14919.2 328.587 14895.8 265.432 14909.4 229.738C14923 194.045 14953.7 155.052 15000.6 177.728C15021.1 187.641 15015 221.707 15015 221.707C15015 221.707 14983.9 177.899 14943.2 210.489C14912 235.42 14920.5 288.862 14945.7 319.864C14974.4 355.176 15031.9 339.623 15031.9 339.623C15031.9 339.623 15019.6 385.959 15040 424.523C15058.3 459.185 15105.3 463.577 15113.2 464.324Z" fill="#58402B"/>
<path d="M15053.9 339.755C15052.6 350.901 15043.8 438.105 15112.5 438.542C15181.2 438.98 15173.8 352.884 15172.1 338.802C15167 294.967 15112.5 225.402 15112.5 225.402C15112.5 225.402 15058.9 297.402 15053.9 339.755Z" fill="#C40D0D"/>
<path d="M2342.54 133.426C2322.02 100.022 2274.69 94.5839 2266.33 93.8751C2257.96 94.5839 2210.64 100.022 2190.11 133.426C2163.48 176.769 2185.01 218.581 2185.01 218.581C2185.01 218.581 2127.53 203.029 2098.85 238.34C2073.67 269.342 2065.1 322.785 2096.3 347.715C2137.09 380.305 2168.19 336.497 2168.19 336.497C2168.19 336.497 2174.29 370.564 2153.79 380.477C2106.88 403.152 2076.17 364.16 2062.53 328.466C2048.89 292.773 2072.33 229.618 2082.16 209.53C2110.96 150.636 2182.46 96.713 2182.46 96.713C2182.46 96.713 2056.92 87.1523 2016.64 120.424C1966.81 161.592 2008.94 205.028 1971.27 205.578C1944.89 205.963 1968.08 151.226 1918.63 120.424C1857.32 82.2356 1739.56 93.6536 1739.56 93.6536C1739.56 93.6536 1803.72 143.985 1851.08 195.891C1914.96 265.89 1932.91 341.405 2016.64 411.199C2062.53 449.442 2127.4 480.31 2185.01 459.385C2211.44 449.786 2241.95 426.478 2249.38 387.361C2262.52 318.141 2190.11 268.68 2190.11 268.68C2190.11 268.68 2213.86 269.102 2227.2 275.309C2241.85 282.124 2258.3 302.589 2258.3 302.589L2266.33 141.203L2274.36 302.589C2274.36 302.589 2290.81 282.124 2305.46 275.309C2318.8 269.102 2342.54 268.68 2342.54 268.68C2342.54 268.68 2270.13 318.141 2283.28 387.361C2290.71 426.478 2321.21 449.786 2347.64 459.385C2405.25 480.31 2470.13 449.442 2516.01 411.199C2599.75 341.405 2617.7 265.89 2681.57 195.891C2728.94 143.985 2793.1 93.6536 2793.1 93.6536C2793.1 93.6536 2675.34 82.2356 2614.02 120.424C2564.57 151.226 2587.77 205.963 2561.38 205.578C2523.71 205.028 2565.84 161.592 2516.01 120.424C2475.73 87.1523 2350.19 96.713 2350.19 96.713C2350.19 96.713 2421.69 150.636 2450.5 209.53C2460.32 229.618 2483.76 292.773 2470.13 328.466C2456.49 364.16 2425.77 403.152 2378.87 380.477C2358.36 370.564 2364.47 336.497 2364.47 336.497C2364.47 336.497 2395.57 380.305 2436.35 347.715C2467.55 322.785 2458.98 269.342 2433.8 238.34C2405.12 203.029 2347.64 218.581 2347.64 218.581C2347.64 218.581 2369.18 176.769 2342.54 133.426Z" fill="#58402B"/>
<path d="M1505.2 464.324C1512.96 463.592 1559.43 460.045 1576.3 424.778C1596.04 383.537 1586.49 339.623 1586.49 339.623C1586.49 339.623 1643.92 355.176 1672.57 319.864C1697.72 288.862 1706.28 235.42 1675.11 210.489C1634.37 177.899 1603.3 221.707 1603.3 221.707C1603.3 221.707 1597.2 187.641 1617.69 177.728C1664.54 155.052 1695.23 194.045 1708.86 229.738C1722.48 265.432 1699.06 328.587 1689.25 348.674C1660.47 407.569 1589.04 461.491 1589.04 461.491C1589.04 461.491 1714.46 471.052 1754.69 437.781C1804.48 396.612 1762.39 353.176 1800.02 352.626C1826.38 352.241 1803.21 406.979 1852.61 437.78C1913.87 475.969 2031.51 464.551 2031.51 464.551C2031.51 464.551 1967.42 414.219 1920.1 362.314C1856.28 292.314 1838.35 216.799 1754.69 147.005C1708.86 108.762 1644.04 77.8946 1586.49 98.819C1560.09 108.419 1529.61 131.726 1522.19 170.843C1517.56 195.212 1523.53 217.131 1533.21 235.306C1555.89 271.233 1582.73 327.914 1578.34 369.387C1574.4 406.602 1560.29 452.374 1504.93 452.374C1449.56 452.374 1436.22 411.803 1432.04 370.279C1428.33 333.51 1449.24 282.755 1469.72 247.629L1477.3 235.063C1486.9 216.936 1492.79 195.103 1488.19 170.843C1480.77 131.726 1450.29 108.419 1423.89 98.819C1366.34 77.8946 1301.52 108.762 1255.68 147.005C1172.03 216.799 1154.1 292.314 1090.28 362.314C1042.96 414.219 978.867 464.551 978.867 464.551C978.867 464.551 1096.51 475.969 1157.77 437.78C1207.17 406.979 1184 352.241 1210.35 352.626C1247.99 353.176 1205.9 396.612 1255.68 437.781C1295.92 471.052 1421.34 461.491 1421.34 461.491C1421.34 461.491 1349.91 407.569 1321.13 348.674C1311.32 328.587 1287.9 265.432 1301.52 229.738C1315.15 194.045 1345.83 155.052 1392.69 177.728C1413.18 187.641 1407.08 221.707 1407.08 221.707C1407.08 221.707 1376.01 177.899 1335.27 210.489C1304.1 235.42 1312.66 288.862 1337.81 319.864C1366.46 355.176 1423.89 339.623 1423.89 339.623C1423.89 339.623 1411.66 385.959 1432.04 424.523C1450.35 459.185 1497.3 463.577 1505.2 464.324Z" fill="#58402B"/>
<path d="M1503.98 464.423C1503.98 464.423 1504.41 464.398 1505.2 464.324M1506.4 464.423C1506.4 464.423 1505.98 464.397 1505.2 464.324M1505.2 464.324C1512.96 463.592 1559.43 460.045 1576.3 424.778C1596.04 383.537 1586.49 339.623 1586.49 339.623C1586.49 339.623 1643.92 355.176 1672.57 319.864C1697.72 288.862 1706.28 235.42 1675.11 210.489C1634.37 177.899 1603.3 221.707 1603.3 221.707C1603.3 221.707 1597.2 187.641 1617.69 177.728C1664.54 155.052 1695.23 194.045 1708.86 229.738C1722.48 265.432 1699.06 328.587 1689.25 348.674C1660.47 407.569 1589.04 461.491 1589.04 461.491C1589.04 461.491 1714.46 471.052 1754.69 437.781C1804.48 396.612 1762.39 353.176 1800.02 352.626C1826.38 352.241 1803.21 406.979 1852.61 437.78C1913.87 475.969 2031.51 464.551 2031.51 464.551C2031.51 464.551 1967.42 414.219 1920.1 362.314C1856.28 292.314 1838.35 216.799 1754.69 147.005C1708.86 108.762 1644.04 77.8946 1586.49 98.819C1560.09 108.419 1529.61 131.726 1522.19 170.843C1517.56 195.212 1523.53 217.131 1533.21 235.306C1555.89 271.233 1582.73 327.914 1578.34 369.387C1574.4 406.602 1560.29 452.374 1504.93 452.374C1449.56 452.374 1436.22 411.803 1432.04 370.279C1428.33 333.51 1449.24 282.755 1469.72 247.629L1477.3 235.063C1486.9 216.936 1492.79 195.103 1488.19 170.843C1480.77 131.726 1450.29 108.419 1423.89 98.819C1366.34 77.8946 1301.52 108.762 1255.68 147.005C1172.03 216.799 1154.1 292.314 1090.28 362.314C1042.96 414.219 978.867 464.551 978.867 464.551C978.867 464.551 1096.51 475.969 1157.77 437.78C1207.17 406.979 1184 352.241 1210.35 352.626C1247.99 353.176 1205.9 396.612 1255.68 437.781C1295.92 471.052 1421.34 461.491 1421.34 461.491C1421.34 461.491 1349.91 407.569 1321.13 348.674C1311.32 328.587 1287.9 265.432 1301.52 229.738C1315.15 194.045 1345.83 155.052 1392.69 177.728C1413.18 187.641 1407.08 221.707 1407.08 221.707C1407.08 221.707 1376.01 177.899 1335.27 210.489C1304.1 235.42 1312.66 288.862 1337.81 319.864C1366.46 355.176 1423.89 339.623 1423.89 339.623C1423.89 339.623 1411.66 385.959 1432.04 424.523C1450.35 459.185 1497.3 463.577 1505.2 464.324Z" stroke="#58402B"/>
<path d="M1505.2 464.324C1512.96 463.592 1559.43 460.045 1576.3 424.778C1596.04 383.537 1586.49 339.623 1586.49 339.623C1586.49 339.623 1643.92 355.176 1672.57 319.864C1697.72 288.862 1706.28 235.42 1675.11 210.489C1634.37 177.899 1603.3 221.707 1603.3 221.707C1603.3 221.707 1597.2 187.641 1617.69 177.728C1664.54 155.052 1695.23 194.045 1708.86 229.738C1722.48 265.432 1699.06 328.587 1689.25 348.674C1660.47 407.569 1589.04 461.491 1589.04 461.491C1589.04 461.491 1714.46 471.052 1754.69 437.781C1804.48 396.612 1762.39 353.176 1800.02 352.626C1826.38 352.241 1803.21 406.979 1852.61 437.78C1913.87 475.969 2031.51 464.551 2031.51 464.551C2031.51 464.551 1967.42 414.219 1920.1 362.314C1856.28 292.314 1838.35 216.799 1754.69 147.005C1708.86 108.762 1644.04 77.8946 1586.49 98.819C1560.09 108.419 1529.61 131.726 1522.19 170.843C1517.56 195.212 1523.53 217.131 1533.21 235.306C1555.89 271.233 1582.73 327.914 1578.34 369.387C1574.4 406.602 1560.29 452.374 1504.93 452.374C1449.56 452.374 1436.22 411.803 1432.04 370.279C1428.33 333.51 1449.24 282.755 1469.72 247.629L1477.3 235.063C1486.9 216.936 1492.79 195.103 1488.19 170.843C1480.77 131.726 1450.29 108.419 1423.89 98.819C1366.34 77.8946 1301.52 108.762 1255.68 147.005C1172.03 216.799 1154.1 292.314 1090.28 362.314C1042.96 414.219 978.867 464.551 978.867 464.551C978.867 464.551 1096.51 475.969 1157.77 437.78C1207.17 406.979 1184 352.241 1210.35 352.626C1247.99 353.176 1205.9 396.612 1255.68 437.781C1295.92 471.052 1421.34 461.491 1421.34 461.491C1421.34 461.491 1349.91 407.569 1321.13 348.674C1311.32 328.587 1287.9 265.432 1301.52 229.738C1315.15 194.045 1345.83 155.052 1392.69 177.728C1413.18 187.641 1407.08 221.707 1407.08 221.707C1407.08 221.707 1376.01 177.899 1335.27 210.489C1304.1 235.42 1312.66 288.862 1337.81 319.864C1366.46 355.176 1423.89 339.623 1423.89 339.623C1423.89 339.623 1411.66 385.959 1432.04 424.523C1450.35 459.185 1497.3 463.577 1505.2 464.324Z" fill="#58402B"/>
<path d="M1445.96 339.755C1444.65 350.901 1435.8 438.105 1504.47 438.542C1573.13 438.98 1565.67 352.884 1564.03 338.802C1558.96 294.967 1504.47 225.402 1504.47 225.402C1504.47 225.402 1450.93 297.402 1445.96 339.755Z" fill="#C40D0D"/>
<path d="M72.4367 424.778C92.173 383.537 82.6232 339.623 82.6232 339.623C82.6232 339.623 140.049 355.176 168.699 319.864C193.852 288.862 202.415 235.42 171.245 210.489C130.5 177.899 99.4308 221.707 99.4308 221.707C99.4308 221.707 93.3343 187.641 113.819 177.728C160.677 155.052 191.364 194.045 204.988 229.738C218.613 265.432 195.194 328.587 185.379 348.674C156.602 407.569 85.1698 461.491 85.1698 461.491C85.1698 461.491 210.591 471.052 250.827 437.781C300.614 396.612 258.522 353.176 296.157 352.626C322.515 352.241 299.34 406.979 348.745 437.78C409.998 475.969 527.645 464.551 527.645 464.551C527.645 464.551 463.55 414.219 416.23 362.314C352.415 292.314 334.484 216.799 250.827 147.005C204.988 108.762 140.177 77.8946 82.6232 98.819C56.2189 108.419 25.7441 131.726 18.321 170.843C13.6968 195.212 19.6663 217.131 29.3437 235.306C52.0277 271.233 78.8667 327.914 74.474 369.387C70.5323 406.602 56.4232 452.374 1.05994 452.374V464.348C1.14462 464.341 1.23473 464.333 1.33014 464.324C9.09167 463.592 55.5594 460.045 72.4367 424.778Z" fill="#58402B"/>
<path d="M0.601562 225.402C0.601562 225.402 55.0893 294.967 60.1679 338.802C61.7994 352.884 69.2675 438.98 0.601562 438.542V225.402Z" fill="#C40D0D"/>
<path d="M3017.2 464.324C3024.97 463.592 3071.48 460.045 3088.37 424.778C3108.12 383.537 3098.56 339.623 3098.56 339.623C3098.56 339.623 3156.04 355.176 3184.71 319.864C3209.89 288.862 3218.46 235.42 3187.26 210.489C3146.48 177.899 3115.39 221.707 3115.39 221.707C3115.39 221.707 3109.28 187.641 3129.79 177.728C3176.68 155.052 3207.4 194.045 3221.03 229.738C3234.67 265.432 3211.23 328.587 3201.41 348.674C3172.61 407.569 3101.11 461.491 3101.11 461.491C3101.11 461.491 3226.64 471.052 3266.91 437.781C3316.74 396.612 3274.61 353.176 3312.28 352.626C3338.66 352.241 3315.47 406.979 3364.91 437.78C3426.22 475.969 3543.96 464.551 3543.96 464.551C3543.96 464.551 3479.81 414.219 3432.45 362.314C3368.58 292.314 3350.64 216.799 3266.91 147.005C3221.03 108.762 3156.17 77.8946 3098.56 98.819C3072.14 108.419 3041.64 131.726 3034.21 170.843C3029.58 195.212 3035.55 217.131 3045.24 235.306C3067.94 271.233 3094.8 327.914 3090.41 369.387C3086.46 406.602 3072.34 452.374 3016.93 452.374C2961.52 452.374 2948.17 411.803 2943.98 370.279C2940.27 333.51 2961.2 282.755 2981.7 247.629L2989.28 235.063C2998.89 216.936 3004.79 195.103 3000.18 170.843C2992.75 131.726 2962.25 108.419 2935.82 98.819C2878.22 77.8946 2813.36 108.762 2767.48 147.005C2683.75 216.799 2665.8 292.314 2601.93 362.314C2554.58 414.219 2490.43 464.551 2490.43 464.551C2490.43 464.551 2608.17 475.969 2669.48 437.78C2718.92 406.979 2695.73 352.241 2722.11 352.626C2759.78 353.176 2717.65 396.612 2767.48 437.781C2807.75 471.052 2933.28 461.491 2933.28 461.491C2933.28 461.491 2861.78 407.569 2832.98 348.674C2823.16 328.587 2799.72 265.432 2813.36 229.738C2826.99 194.045 2857.7 155.052 2904.6 177.728C2925.1 187.641 2919 221.707 2919 221.707C2919 221.707 2887.91 177.899 2847.13 210.489C2815.93 235.42 2824.5 288.862 2849.68 319.864C2878.35 355.176 2935.82 339.623 2935.82 339.623C2935.82 339.623 2923.59 385.959 2943.98 424.523C2962.31 459.185 3009.3 463.577 3017.2 464.324Z" fill="#58402B"/>
<path d="M2957.91 339.755C2956.6 350.901 2947.75 438.105 3016.47 438.542C3085.2 438.98 3077.72 352.884 3076.09 338.802C3071.01 294.967 3016.47 225.402 3016.47 225.402C3016.47 225.402 2962.89 297.402 2957.91 339.755Z" fill="#C40D0D"/>
<path d="M3854.99 133.426C3834.47 100.022 3787.14 94.5839 3778.78 93.8751C3770.41 94.5839 3723.09 100.022 3702.56 133.426C3675.93 176.769 3697.46 218.581 3697.46 218.581C3697.46 218.581 3639.98 203.029 3611.3 238.34C3586.12 269.342 3577.55 322.785 3608.75 347.715C3649.54 380.305 3680.64 336.497 3680.64 336.497C3680.64 336.497 3686.74 370.564 3666.23 380.477C3619.33 403.152 3588.61 364.16 3574.98 328.466C3561.34 292.773 3584.78 229.618 3594.6 209.53C3623.41 150.636 3694.91 96.713 3694.91 96.713C3694.91 96.713 3569.37 87.1523 3529.09 120.424C3479.26 161.592 3521.39 205.028 3483.72 205.578C3457.34 205.963 3480.53 151.226 3431.08 120.424C3369.77 82.2356 3252.01 93.6536 3252.01 93.6536C3252.01 93.6536 3316.16 143.985 3363.53 195.891C3427.41 265.89 3445.36 341.405 3529.09 411.199C3574.98 449.442 3639.85 480.31 3697.46 459.385C3723.89 449.786 3754.39 426.478 3761.82 387.361C3774.97 318.141 3702.56 268.68 3702.56 268.68C3702.56 268.68 3726.31 269.102 3739.65 275.309C3754.29 282.124 3770.75 302.589 3770.75 302.589L3778.78 141.203L3786.81 302.589C3786.81 302.589 3803.26 282.124 3817.9 275.309C3831.25 269.102 3854.99 268.68 3854.99 268.68C3854.99 268.68 3782.58 318.141 3795.73 387.361C3803.16 426.478 3833.66 449.786 3860.09 459.385C3917.7 480.31 3982.58 449.442 4028.46 411.199C4112.2 341.405 4130.15 265.89 4194.02 195.891C4241.39 143.985 4305.55 93.6536 4305.55 93.6536C4305.55 93.6536 4187.78 82.2356 4126.47 120.424C4077.02 151.226 4100.22 205.963 4073.83 205.578C4036.16 205.028 4078.29 161.592 4028.46 120.424C3988.18 87.1523 3862.64 96.713 3862.64 96.713C3862.64 96.713 3934.14 150.636 3962.95 209.53C3972.77 229.618 3996.21 292.773 3982.58 328.466C3968.94 364.16 3938.22 403.152 3891.32 380.477C3870.81 370.564 3876.92 336.497 3876.92 336.497C3876.92 336.497 3908.02 380.305 3948.8 347.715C3980 322.785 3971.43 269.342 3946.25 238.34C3917.57 203.029 3860.09 218.581 3860.09 218.581C3860.09 218.581 3881.63 176.769 3854.99 133.426Z" fill="#58402B"/>
<line x1="1" y1="492.412" x2="15640" y2="492.413" stroke="#58402B" stroke-width="17"/>
<line x1="1" y1="540.625" x2="15640" y2="540.626" stroke="#58402B" stroke-width="17"/>
<line x1="1" y1="56.5" x2="15640" y2="56.5013" stroke="#58402B" stroke-width="17"/>
<line x1="1" y1="8.5" x2="15640" y2="8.50135" stroke="#58402B" stroke-width="17"/>
</svg>
